<svg viewBox="0 0 160 160" xmlns="http://www.w3.org/2000/svg"  fill="none" stroke-width="3" stroke-linecap="round" stroke-linejoin="round">
<path d="m49.58378,29.95523c5.11126,-0.15399 10.21323,0.00046 15.30594,0.46382c-9.9535,17.04618 -19.84809,34.12992 -29.68424,51.2517c1.237,2.00972 2.47353,4.0199 3.71053,6.02961c27.05579,0.15445 54.11205,0.30937 81.16784,0.46382c-9.79858,16.89126 -19.53872,33.82055 -29.22042,50.78788c-12.52026,0.54127 -25.04329,0.61827 -37.56912,0.23191c-4.94753,-8.50314 -9.89459,-17.00675 -14.84212,-25.50989c5.10198,-0.30937 10.20396,-0.30937 15.30594,0c2.37752,3.90441 4.6966,7.84684 6.95724,11.82731c7.41642,0.54081 14.83748,0.61827 22.26318,0.23191c4.79261,-8.19424 9.58569,-16.38802 14.3783,-24.58226c-22.10873,-0.15445 -44.217,-0.30937 -66.32572,-0.46382c-3.76897,-6.3784 -7.4795,-12.79437 -11.13159,-19.24837c10.0175,-17.09812 19.9121,-34.25932 29.68424,-51.4836z" fill="#129dcb"/>
	<path d="m71.84696,29.95523c12.36952,-0.07746 24.73764,0 37.1053,0.23191c5.00597,8.54257 9.9535,17.12317 14.84212,25.7418c-5.10198,0.61827 -10.20396,0.61827 -15.30594,0c-2.31908,-4.0199 -4.63816,-8.03933 -6.95724,-12.05922c-7.42106,-0.61827 -14.84212,-0.61827 -22.26318,0c-4.63816,8.03933 -9.27633,16.07912 -13.91449,24.11845c21.95242,0.38636 43.90624,0.61827 65.86191,0.69572c3.76897,6.3784 7.4795,12.79437 11.13159,19.24837c-9.80229,17.14404 -19.69688,34.22778 -29.68424,51.2517c-5.10198,0.30937 -10.20396,0.30937 -15.30594,0c9.72159,-16.73681 19.38427,-33.51165 28.98852,-50.32406c0.30937,-0.61827 0.30937,-1.237 0,-1.85527c-0.9434,-1.48699 -1.79358,-3.03336 -2.55099,-4.63816c-27.21071,-0.30937 -54.42095,-0.61827 -81.63166,-0.92763c9.78281,-17.24979 19.67787,-34.41099 29.68424,-51.4836z" fill="#129dcb"/>
</svg>
